<svg width="34" height="27" viewBox="0 0 34 27" fill="none" xmlns="http://www.w3.org/2000/svg">
<path d="M11.9824 0.300134C15.9126 -0.165019 19.8788 -0.00129005 23.82 0.203806C24.3408 0.188474 24.8606 0.0892529 25.3817 0.14624C25.8281 0.198599 26.228 0.430597 26.5857 0.690365C27.3064 1.2235 27.911 1.9004 28.4246 2.63226C29.0324 3.5105 29.1646 4.62421 29.7773 5.501C30.586 6.62888 31.8758 7.30578 32.6444 8.46751C33.1635 9.22136 33.2513 10.1878 33.1531 11.075C33.068 11.872 32.651 12.5931 32.1131 13.1714C31.3945 13.9357 30.5696 14.623 30.0331 15.5382C29.6797 16.1405 29.5437 16.8408 29.1973 17.4451C28.3724 18.6812 27.1681 19.6046 25.911 20.3665C24.0925 21.4611 22.1139 22.2439 20.2149 23.18C19.323 23.6125 18.4661 24.1175 17.5525 24.5049C16.7092 24.8723 15.7861 24.9677 14.8896 25.1306C14.1097 25.2498 13.3484 25.4615 12.5789 25.6319C10.6918 26.0415 8.74862 26.3597 6.81442 26.154C5.49262 26.0117 4.14888 25.5341 3.22062 24.5462C2.85999 24.139 2.52362 23.6865 2.33508 23.1725C2.22566 21.6116 2.43787 20.0541 2.64114 18.5102C2.83343 17.024 2.94921 15.4983 2.62843 14.021C2.31747 12.8509 1.57977 11.8555 1.20875 10.7076C0.918003 9.83896 0.853039 8.86005 1.19461 7.99657C1.74752 6.97919 2.84671 6.38676 3.35285 5.33582C3.64129 4.77666 3.69817 4.1362 3.67825 3.51715C4.58284 2.61057 5.71523 1.96346 6.89931 1.49686C8.5263 0.855541 10.2535 0.515643 11.9824 0.300134Z" fill="#0D0D0D"/>
<path d="M10.1056 1.70372C14.0959 1.14706 18.1388 0.907969 22.1687 1.04742C23.1192 1.1067 24.0758 1.04883 25.023 1.16089C25.8245 1.26421 26.5479 1.70372 27.0674 2.28832C28.2998 3.66557 28.6811 5.55375 29.9396 6.91378C29.3989 6.96883 28.859 6.82148 28.3207 6.89148C28.1591 6.90532 28.0164 6.98407 27.8869 7.07214C28.7057 6.97306 29.5622 7.00214 30.329 7.32281C31.3779 7.73635 32.2358 8.6055 32.5547 9.65699C32.8006 10.4765 32.6675 11.3826 32.2275 12.1196C31.7118 12.9885 30.8683 13.6473 29.9314 14.0623C29.9748 14.0818 30.0192 14.1004 30.0635 14.1201C30.2336 14.0586 30.3848 13.9618 30.5358 13.8672C30.557 13.909 30.599 13.9937 30.6201 14.0355C30.3787 14.1873 30.1149 14.3194 29.9366 14.545C29.5155 15.0384 29.3839 15.6803 29.1457 16.2604C28.8913 16.9339 28.4044 17.494 27.8869 17.997C26.6404 19.156 25.1049 19.9662 23.5697 20.7142C22.4718 21.23 21.356 21.7098 20.2532 22.2157C19.2869 22.6487 18.3861 23.2014 17.4169 23.6279C17.2019 23.7132 16.9878 23.8157 16.7537 23.8388C16.423 23.8416 16.0958 23.7499 15.7642 23.7869C15.1838 23.8461 14.644 24.0728 14.0974 24.2535C12.9652 24.6656 11.7671 24.8694 10.5741 25.0354C9.23129 25.2067 7.86585 25.2841 6.51833 25.1178C5.41752 24.9747 4.26649 24.669 3.45733 23.8944C3.02646 23.4529 2.66873 22.8697 2.72659 22.2431C2.7122 19.7262 3.41298 17.2439 3.19799 14.7228C3.10782 13.9525 2.97771 13.1562 2.55301 12.4826C2.21819 11.9161 1.74003 11.4108 1.5785 10.7641C1.42283 9.99517 1.40991 9.1599 1.77557 8.44149C2.23405 7.5094 3.2814 6.99988 3.7152 6.0517C3.94987 5.55968 3.96955 5.00839 3.93636 4.4777C5.0733 3.20179 6.66283 2.27082 8.38894 1.96455C9.56729 1.74493 10.7597 1.98403 11.9416 2.03963C14.3168 2.18783 16.6321 1.40366 19.0064 1.51346C20.099 1.5829 21.1657 1.88579 22.1537 2.33377C23.244 2.82579 24.2276 3.50157 25.2441 4.11581C25.5695 4.30212 25.8891 4.50593 26.2442 4.63973C25.1763 3.82958 24.0793 3.0375 22.8801 2.41338C21.6207 1.76356 20.2132 1.36385 18.7808 1.32208C16.4071 1.24981 14.0839 1.91091 11.7102 1.87055C11.1724 1.85389 10.6296 1.8251 10.1056 1.70372Z" fill="#FCFCFC"/>
<path d="M15.9878 2.13979C17.8947 1.89895 19.8803 1.99362 21.7034 2.58743C22.8172 2.9487 23.8582 3.50415 24.7256 4.23689C25.0068 4.48954 25.3043 4.73522 25.5159 5.04204C24.0228 3.82332 22.2452 2.84786 20.2708 2.44743C19.074 2.19344 17.8321 2.14677 16.6096 2.24761C15.6561 2.34041 14.7509 2.68371 13.7876 2.7167C12.0197 2.82291 10.251 2.6467 8.49727 2.45172C8.32491 2.43643 8.15343 2.40639 7.98048 2.41256C7.67679 2.55122 7.4454 2.80441 7.10187 2.87307C7.33001 2.52494 7.73936 2.29723 8.17911 2.24976C9.05566 2.15642 9.90565 2.4249 10.7683 2.50992C12.5191 2.65126 14.2613 2.3734 15.9878 2.13979Z" fill="#0D0D0D"/>
<path d="M17.3346 3.10192C19.0063 2.91468 20.753 3.04581 22.309 3.76715C23.0305 4.11912 23.7758 4.67662 23.9813 5.54619C23.4604 4.553 22.4688 3.98169 21.4823 3.66573C19.9749 3.19103 18.3794 3.12442 16.8202 3.20724C16.9859 3.14572 17.16 3.11572 17.3346 3.10192Z" fill="#0D0D0D"/>
<path d="M8.41052 3.83901C9.57028 3.46278 10.8323 3.44578 12.0202 3.69958C12.2383 3.74683 12.4807 3.74827 12.6699 3.87963C12.7967 3.94733 12.6817 4.08388 12.6557 4.17462C11.597 3.75633 10.4259 3.61258 9.29975 3.78946C8.61964 3.91132 7.92274 4.1945 7.49348 4.75625C7.30723 4.99017 7.21831 5.27624 7.10187 5.54617C7.12417 5.1273 7.28058 4.7335 7.46886 4.36389C7.71651 4.09627 8.07249 3.95914 8.41052 3.83901Z" fill="#0D0D0D"/>
<path d="M16.9654 3.5867C17.0821 3.46199 17.2141 3.57111 17.3316 3.62901C16.9446 3.86826 16.655 4.26817 16.5056 4.72598C16.4841 4.99895 16.5218 5.27988 16.4441 5.54617C16.2709 5.20479 16.3022 4.79693 16.3318 4.42311C16.5775 4.17559 16.7098 3.82213 16.9654 3.5867Z" fill="#0D0D0D"/>
<path d="M11.7052 4.61206C11.7786 4.5856 11.8522 4.56145 11.9268 4.53787C12.0038 4.73886 12.0943 4.93238 12.2173 5.09513C12.2121 5.58164 12.2226 6.06816 12.2121 6.55468C11.9028 6.20446 12.1952 5.64922 12.0861 5.21589C11.9678 5.00513 11.7955 4.84842 11.7052 4.61206Z" fill="#0D0D0D"/>
<path d="M18.7697 5.18243C19.9891 4.94862 21.2991 4.97446 22.4493 5.50914C23.1827 5.84478 23.8151 6.50775 23.981 7.35624C23.7845 7.5199 23.5593 7.66634 23.3019 7.6728C22.7125 7.7011 22.1674 7.39869 21.5847 7.35685C19.9705 7.21903 18.3757 7.7571 16.9742 8.57143C16.617 8.18626 16.0129 8.04997 15.8359 7.49714C15.6996 7.15135 15.9504 6.83724 16.1393 6.58036C16.8074 5.77772 17.8044 5.39439 18.7697 5.18243Z" fill="#0D0D0D"/>
<path d="M17.343 6.70453C17.9106 6.38421 18.5645 6.23557 19.1925 6.05038C19.1131 6.36044 19.3304 6.6232 19.3777 6.91849C18.9458 6.87294 18.5164 6.9808 18.1473 7.1845C17.7496 7.39195 17.3041 7.68399 16.8257 7.50982C16.7792 7.16123 17.0368 6.87169 17.343 6.70453Z" fill="#FCFCFC"/>
<path d="M8.30631 6.1574C9.2158 5.93161 10.1792 6.08815 11.0516 6.39366C11.6398 6.61916 12.254 6.91187 12.6054 7.46237C12.9734 7.3553 13.3895 7.19439 13.7514 7.41174C13.7441 7.55693 13.7493 7.72918 13.6282 7.83189C13.3396 8.11937 12.8575 8.08067 12.5988 8.41353C12.5979 8.93494 12.6011 9.45634 12.5965 9.97775C12.1471 10.48 11.2984 10.5783 11.0858 11.2897C11.4453 11.9153 11.8898 12.5886 12.6078 12.8269C12.8969 12.8493 13.0832 12.5819 13.3278 12.4739C13.417 12.5269 13.506 12.5813 13.5943 12.6363C13.4541 12.9843 13.282 13.3588 12.9436 13.5525C12.7219 13.6747 12.46 13.595 12.2592 13.4705C11.558 13.0297 11.151 12.2563 10.4573 11.8065C10.318 11.9592 10.1615 12.1678 9.93087 12.1463C9.8144 11.9927 9.76833 11.8006 9.6846 11.6293C9.03326 11.7916 8.50217 12.4411 7.7871 12.3235C9.36414 11.6904 10.599 10.491 11.9312 9.47438C11.9312 9.07431 11.9312 8.67365 11.9312 8.273C11.306 7.89736 10.5628 7.82375 9.85206 7.75362C8.92867 7.65993 7.96963 7.65761 7.10187 7.28605C7.22877 6.70208 7.74567 6.2892 8.30631 6.1574Z" fill="#0D0D0D"/>
<path d="M22.4469 6.57431C22.6087 6.52491 22.7889 6.56176 22.9124 6.76762C22.9671 6.83463 22.9586 6.95772 22.9586 7.05891C22.8417 6.88109 22.6897 6.88803 22.5454 6.85225C22.4649 6.83864 22.4634 6.67871 22.4469 6.57431Z" fill="#FCFCFC"/>
<path d="M8.1245 6.66534C8.48469 6.70824 8.84149 6.55838 9.20168 6.55536C9.37499 6.54327 9.53583 6.70401 9.65901 6.95782C9.35828 6.93908 9.05897 6.98562 8.75965 7.04605C8.53623 7.08291 8.27967 7.06417 8.1245 6.66534Z" fill="#FCFCFC"/>
<path d="M24.4927 6.56548C25.0211 6.4737 25.4942 7.00408 26.0272 6.83616C25.9389 7.59959 25.1775 7.77046 24.8138 7.30733C25.0562 7.25319 25.3813 7.41349 25.5339 7.05272C25.1684 7.01169 24.7711 6.95417 24.4927 6.56548Z" fill="#0D0D0D"/>
<path d="M4.29566 7.18763C4.79298 7.27031 5.28864 7.1553 5.7788 7.07633C6.06817 7.02197 6.38504 7.09092 6.59051 7.3201C5.70618 7.19936 4.78307 7.21452 3.94303 7.55814C3.24025 7.82909 2.60073 8.377 2.33887 9.12348C2.09957 9.78125 2.17053 10.5151 2.37546 11.1721C2.42332 11.3097 2.4566 11.4716 2.579 11.5612C3.00012 11.8922 3.57665 11.8942 3.9964 12.2232C4.1232 12.3102 4.08937 12.4699 4.08442 12.6049C3.89215 12.4759 3.71143 12.3251 3.49716 12.237C3.09309 12.0539 2.62686 11.966 2.30449 11.6307C1.99394 10.9194 1.8974 10.0925 2.07619 9.32919C2.30229 8.33895 3.05431 7.52438 3.96201 7.17132C4.07039 7.12983 4.18509 7.18162 4.29566 7.18763Z" fill="#0D0D0D"/>
<path d="M27.5619 7.14468C27.9502 7.02723 28.3656 7.06852 28.7679 7.05887C29.5204 7.05324 30.3224 7.21735 30.8904 7.71023C31.4022 8.16691 31.6007 8.84374 31.6414 9.48759C31.6779 9.85497 31.624 10.2215 31.6129 10.5881C31.5707 10.5433 31.5282 10.4988 31.486 10.4548C31.5465 9.88447 31.5305 9.30766 31.4686 8.73862C31.2212 8.17173 30.7655 7.65392 30.1451 7.42947C29.3234 7.12001 28.4218 7.23452 27.5619 7.14468Z" fill="#0D0D0D"/>
<path d="M24.4927 7.62763C24.6925 7.42757 24.9126 7.72572 25.0048 8.0666C24.8058 8.0802 24.63 7.88645 24.4927 7.62763Z" fill="#0D0D0D"/>
<path d="M26.5336 7.64467C27.5122 7.44344 28.5867 7.60868 29.4097 8.20369C30.1562 8.73182 30.6763 9.62853 30.6279 10.5684C30.6135 11.3698 30.1663 12.0991 29.5753 12.6051C29.3418 12.0853 29.6508 11.5701 29.8215 11.0888C30.0414 10.5414 29.9198 9.91734 29.6576 9.409C29.399 8.89527 28.9049 8.53059 28.3623 8.38093C27.8794 8.22888 27.3678 8.24898 26.8698 8.27957C26.3636 8.77801 25.6873 9.04282 25.0175 9.22636C24.1387 9.45129 23.2154 9.52027 22.3183 9.38201C21.7146 9.27615 21.0761 9.05572 20.6897 8.54378C20.4804 8.27897 20.4131 7.93498 20.401 7.60329C21.1847 7.71995 21.6411 8.4916 22.3764 8.72732C23.0453 8.94235 23.7866 8.86858 24.4318 8.60376C25.1447 8.31196 25.7664 7.79672 26.5336 7.64467Z" fill="#0D0D0D"/>
<path d="M3.13733 8.73501C3.54021 8.40282 4.0512 8.23495 4.54402 8.06708C4.29083 8.58074 3.50972 8.51187 3.30058 9.06041C3.13271 9.55308 3.33785 10.093 3.1515 10.5881C3.10437 10.5222 3.05786 10.4572 3.00951 10.3921C3.01844 9.83739 3.10899 9.28827 3.13733 8.73501Z" fill="#0D0D0D"/>
<path d="M4.19737 8.72885C4.84649 8.46495 5.598 8.57709 6.26114 8.74335C6.86637 8.90521 7.45789 9.14062 7.9266 9.51121C8.19203 9.38923 8.41572 9.20536 8.69761 9.10799C8.86218 9.06551 9.01516 9.12922 9.14773 9.20536C9.13036 9.48195 9.01272 9.77951 8.69975 9.909C8.07653 10.1641 7.36189 10.0569 6.69419 10.0833C6.67072 9.74455 6.47324 9.37059 6.0536 9.28046C5.19848 9.09866 4.36773 9.45864 3.52113 9.50785C3.61225 9.1849 3.82863 8.86999 4.19737 8.72885Z" fill="#0D0D0D"/>
<path d="M26.6747 9.20534C26.7686 9.08329 26.9372 9.09459 27.0764 9.07558C27.091 9.41196 27.135 9.76872 27.3544 10.0453C27.8013 10.6357 28.6465 10.7655 29.0966 11.3537C28.7315 11.676 28.2388 11.4247 27.8168 11.3994C27.5909 11.3605 27.5273 11.6223 27.4342 11.7661C27.2919 11.9898 27.2779 12.2584 27.3836 12.4983C27.4743 12.6463 27.2647 12.7099 27.1923 12.805C26.4138 13.5626 25.8904 14.5147 25.2359 15.3652C24.7214 16.055 24.1233 16.6925 23.4233 17.2115C22.2242 18.1022 20.8917 18.8314 19.4728 19.3436C18.1365 19.8331 16.7013 19.9761 15.286 20.0855C13.6538 20.1913 12.0141 20.199 10.3818 20.0869C9.24284 19.9968 8.09588 19.8717 7.00131 19.5425C6.55638 19.4006 6.09198 19.2337 5.77532 18.8852C5.30462 18.3766 5.05095 17.7237 4.87 17.0754C4.50725 15.6748 4.46029 14.2042 4.66615 12.7782C4.76149 12.1041 5.10535 11.501 5.43432 10.9107C5.59351 10.6646 5.50905 10.3599 5.60726 10.0982C5.66538 9.9467 5.8595 10.0318 5.98204 10.0205C6.27522 10.6222 6.09914 11.314 6.31244 11.9325C7.45368 13.0256 9.05359 13.5576 10.6252 13.7485C12.8973 14.0053 15.1907 13.6675 17.3984 13.1521C20.5685 12.3881 23.6168 11.2195 26.5722 9.89022C26.5787 9.66156 26.5312 9.40479 26.6747 9.20534Z" fill="#0D0D0D"/>
<path d="M16.3086 10.6489C16.3285 10.2254 16.751 10.0444 17.088 10.0911C17.5132 10.145 17.9762 10.2668 18.2853 10.612C18.3842 10.8809 18.3498 11.188 18.3444 11.4725C18.3039 11.887 18.1759 12.3856 17.7919 12.5642C17.6102 12.661 17.4148 12.5621 17.2366 12.5064C17.2366 12.3765 17.2114 12.2383 17.267 12.1175C17.3715 11.8705 17.6543 11.7752 17.7349 11.5115C17.7981 11.3276 17.7403 11.1346 17.7094 10.9513C17.2581 10.7616 16.7496 10.8757 16.3086 10.6489Z" fill="#0D0D0D"/>
<path d="M18.4076 10.5762C18.3461 10.4092 18.2939 10.1606 18.5169 10.0839C18.5757 10.0997 18.6917 10.1297 18.7498 10.1458C18.6716 10.2011 18.5935 10.2555 18.515 10.3103C18.5304 10.5113 18.6884 10.6776 18.8969 10.7197C19.6603 10.8978 20.4548 10.6603 21.2217 10.7914C21.3899 10.806 21.4438 10.9507 21.4168 11.0923C20.7097 10.7219 19.8839 11.0172 19.1255 10.9492C18.8513 10.9325 18.5051 10.8533 18.4076 10.5762Z" fill="#0D0D0D"/>
<path d="M3.00951 10.5883C3.04451 10.5998 3.11564 10.6232 3.1512 10.6351C3.33957 10.8367 3.75215 10.9325 4.03249 11.0925C3.78494 11.0767 3.51961 11.0529 3.33096 10.9597C3.12564 10.867 3.0559 10.722 3.00951 10.5883Z" fill="#0D0D0D"/>
<path d="M24.0425 11.8642C25.081 11.5224 25.9131 10.6353 27.0499 10.5883C27.0676 11.198 26.7819 11.792 26.3176 12.1866C25.671 12.7463 24.8171 12.9943 23.9818 13.1092C24.1862 12.7162 23.9782 12.2791 24.0425 11.8642Z" fill="#FCFCFC"/>
<path d="M31.5011 10.5883C31.5522 10.6447 31.6029 10.7019 31.6536 10.7583C31.5575 11.2938 31.4405 11.8269 31.2799 12.3517C30.7297 12.6222 30.2171 12.9794 29.5782 13.0931C29.4148 13.1351 29.2524 13.0863 29.0961 13.0487C29.7098 12.9659 30.3341 12.7688 30.7396 12.3614C31.2335 11.8674 31.4476 11.2186 31.5011 10.5883Z" fill="#0D0D0D"/>
<path d="M14.8746 11.188C15.5113 11.0169 16.191 11.0916 16.8133 11.2852C16.8345 11.5661 16.8127 11.8555 16.6601 12.1008C15.9751 11.4923 15.0295 12.1546 14.2627 11.7957C14.302 11.4809 14.5784 11.2613 14.8746 11.188Z" fill="#0D0D0D"/>
<path d="M18.8668 13.2141C20.4104 12.8722 21.9112 12.3946 23.4702 12.1008C23.4606 12.6803 23.1371 13.256 22.5582 13.5654C21.5423 14.1219 20.2933 14.181 19.2173 14.6218C19.0816 14.156 19.0124 13.6776 18.8668 13.2141Z" fill="#FCFCFC"/>
<path d="M5.56839 14.3966C5.58174 13.7373 6.01178 13.1356 6.47198 12.6051C6.75077 13.4399 6.48405 14.3138 6.20483 15.1261C5.84201 14.997 5.54426 14.7292 5.56839 14.3966Z" fill="#FCFCFC"/>
<path d="M24.7848 13.9773C25.1645 13.7671 25.5926 13.6436 26.0277 13.6134C25.2931 14.1948 25.117 15.3153 24.1445 15.6302C24.0331 15.3912 23.9393 15.128 24.0017 14.8626C24.0913 14.4624 24.4318 14.1709 24.7848 13.9773Z" fill="#FCFCFC"/>
<path d="M7.29462 15.4243C7.20977 14.8386 6.83262 14.0742 7.44428 13.6134C7.76564 13.8975 8.19691 14.0382 8.63119 14.131C8.67896 14.4934 8.37898 14.7781 8.25905 15.104C8.1899 15.2865 8.29413 15.4664 8.37564 15.6302C8.02654 15.5226 7.67845 15.3474 7.29462 15.4243Z" fill="#FCFCFC"/>
<path d="M15.588 14.2131C16.5679 13.9876 17.5495 13.766 18.5442 13.6134C18.6854 14.1007 18.7334 14.6094 18.8666 15.098C18.1031 15.182 17.3794 15.4676 16.621 15.5777C16.1796 15.6463 15.7311 15.6396 15.2874 15.6039C15.292 15.171 15.2795 14.739 15.2911 14.3066C15.3741 14.2422 15.4902 14.2442 15.588 14.2131Z" fill="#FCFCFC"/>
<path d="M8.63612 15.309C9.00265 14.9885 8.78548 14.4604 9.10746 14.1176C9.90667 14.5187 10.8657 14.2837 11.7052 14.5625C11.4108 14.8627 11.6466 15.275 11.5994 15.6302C10.606 15.6281 9.5729 15.656 8.63612 15.309Z" fill="#FCFCFC"/>
<path d="M12.4123 14.3397C13.0387 14.4524 13.6384 14.1193 14.2608 14.1176C14.2641 14.6208 14.2616 15.125 14.2628 15.6282C13.5862 15.6299 12.9102 15.6322 12.2338 15.6272C12.1449 15.166 12.4361 14.7945 12.4123 14.3397Z" fill="#FCFCFC"/>
<path d="M19.9077 15.9122C20.9946 15.6378 22.0176 15.1532 23.0076 14.6218C22.9173 15.1952 23.0442 15.8169 23.4698 16.2177C22.4683 16.8199 21.6039 17.6517 20.544 18.1512C20.531 17.4957 19.9638 17.0495 19.9014 16.4103C19.877 16.2442 19.8952 16.0775 19.9077 15.9122Z" fill="#FCFCFC"/>
<path d="M15.8251 17.0591C16.9925 16.9233 18.0944 16.5234 19.1841 16.1343C19.1547 16.4942 19.1465 16.8728 19.3274 17.2037C19.5366 17.6031 19.8282 17.9771 19.8891 18.4289C18.8655 18.6601 17.8828 19.0576 16.8251 19.1468C16.5021 19.1819 16.1767 19.1398 15.8619 19.0749C15.9913 18.4054 15.7106 17.7326 15.8251 17.0591Z" fill="#FCFCFC"/>
<path d="M5.60765 17.0437C5.55471 16.9172 5.56234 16.7736 5.58118 16.6386C5.70522 16.9915 5.91988 17.2842 6.04348 17.6373C6.10898 17.8036 6.07511 17.9905 6.01634 18.1512C5.94703 17.7481 5.74492 17.4124 5.60765 17.0437Z" fill="#FCFCFC"/>
<path d="M7.02194 17.143C7.59141 17.6754 7.89031 18.4264 8.1247 19.1598C7.68171 19.0434 7.21543 18.9908 6.80139 18.7841C6.67742 18.7306 6.63872 18.5927 6.59027 18.4796C6.65792 18.5402 6.72399 18.6017 6.79006 18.6652C6.93195 18.6248 7.09776 18.6091 7.19844 18.4844C7.3611 18.0103 6.72336 17.5959 7.02194 17.143Z" fill="#FCFCFC"/>
<path d="M12.2169 17.5062C13.2044 17.5918 14.1958 17.4281 15.1394 17.143C15.1891 17.9213 14.9551 18.7477 15.2858 19.4867C14.4125 19.7759 13.4807 19.6179 12.5794 19.6437C12.4899 18.9258 12.3146 18.2224 12.2169 17.5062Z" fill="#FCFCFC"/>
<path d="M8.1245 17.6485C8.49875 17.6252 8.80903 17.882 9.18891 17.8289C9.16963 18.3164 9.56156 18.6972 9.65901 19.1596C9.30456 19.1136 8.92843 19.0995 8.62003 18.9179C8.66045 18.8038 8.73166 18.68 8.66661 18.5609C8.54105 18.2318 8.24175 17.9822 8.1245 17.6485Z" fill="#FCFCFC"/>
<path d="M10.171 17.7477C10.6452 17.6257 11.1964 17.555 11.6116 17.896C12.085 18.3178 12.1465 19.0383 12.2171 19.6576C11.7434 19.6791 11.2637 19.6506 10.8112 19.4813C10.6841 18.8669 10.3417 18.3448 10.171 17.7477Z" fill="#FCFCFC"/>
<path d="M21.9487 19.4991C22.7596 19.123 23.5941 18.7394 24.4927 18.6553C23.0424 19.1809 21.7007 19.9548 20.307 20.609C18.5058 21.4598 16.5601 22.1729 14.5443 22.0847C13.8009 21.996 13.0601 22.1517 12.3153 22.1441C10.8845 22.127 9.43653 22.3065 8.01906 22.0239C7.43229 21.8952 6.82057 21.6672 6.43829 21.1725C6.24048 20.9348 6.13751 20.6363 6.07863 20.3355C6.59405 21.2125 7.57731 21.632 8.51939 21.8485C9.69032 22.1012 10.9001 22.1849 12.094 22.0788C13.6947 22.0095 15.3164 22.0239 16.8841 21.6411C18.6734 21.2004 20.298 20.2964 21.9487 19.4991Z" fill="#0D0D0D"/>
<path d="M23.5201 19.6512C24.3239 19.253 25.1099 18.7247 26.0275 18.6553C25.0309 19.3299 23.9449 19.8619 22.8529 20.3623C18.5541 22.2795 13.8396 23.1875 9.1448 23.1927C8.21038 23.1979 7.25791 23.1587 6.35958 22.8757C5.64687 22.6514 4.98086 22.2012 4.60474 21.541C4.59356 21.2623 4.48299 20.9534 4.59213 20.6897C4.6288 20.6684 4.70213 20.6263 4.7388 20.6047C4.74625 20.9439 4.74109 21.2836 4.74252 21.6228C5.14729 22.0333 5.65833 22.3229 6.19687 22.5176C7.0233 22.8233 7.9033 22.9457 8.77728 23.0099C10.1508 23.0931 11.5281 23.0076 12.8951 22.8625C16.5953 22.4718 20.2018 21.33 23.5201 19.6512Z" fill="#0D0D0D"/>
<path d="M10.171 20.7701C11.1955 20.7911 12.2204 20.7314 13.2432 20.8149C13.9193 20.8183 14.6479 20.357 15.2861 21.0753C14.1713 20.9593 13.0576 21.171 11.9424 21.1764C11.3513 21.1384 10.7435 21.1744 10.171 20.7701Z" fill="#0D0D0D"/>
</svg>
